<mxfile host="app.diagrams.net" modified="2024-02-24T01:41:52.914Z" agent="Mozilla/5.0 (Macintosh; Intel Mac OS X 10_15_7) AppleWebKit/605.1.15 (KHTML, like Gecko) Version/17.2.1 Safari/605.1.15" version="23.1.6" etag="07SNUQc62f6rKFtXjxHd" type="github">
  <diagram name="ページ1" id="HNU78MusErI2U60JnvWK">
    <mxGraphModel>
      <root>
        <mxCell id="0" />
        <mxCell id="1" parent="0" />
      </root>
    </mxGraphModel>
  </diagram>
</mxfile>
